<svg width="165" height="329" viewBox="0 0 165 329" fill="none" xmlns="http://www.w3.org/2000/svg">
        <path d="M164.75 292.444C164.75 302.14 160.899 311.438 154.043 318.293C147.188 325.149 137.89 329 128.194 329H36.8056C27.1104 329 17.8124 325.149 10.9569 318.293C4.10138 311.438 0.25 302.14 0.25 292.444V36.5556C0.25 26.8604 4.10138 17.5624 10.9569 10.7069C17.8124 3.85138 27.1104 0 36.8056 0L128.194 0C137.89 0 147.188 3.85138 154.043 10.7069C160.899 17.5624 164.75 26.8604 164.75 36.5556V292.444Z" fill="#31373D"/>
        <path d="M82.4911 228.472C92.1862 228.472 101.484 232.324 108.34 239.179C115.195 246.035 119.047 255.333 119.047 265.028C119.047 274.723 115.195 284.021 108.34 290.876C101.484 297.732 92.1862 301.583 82.4911 301.583C72.796 301.583 63.4979 297.732 56.6424 290.876C49.7869 284.021 45.9355 274.723 45.9355 265.028C45.9355 255.333 49.7869 246.035 56.6424 239.179C63.4979 232.324 72.796 228.472 82.4911 228.472Z" fill="#77B255"/>
        <path d="M82.4911 127.944C92.1862 127.944 101.484 131.796 108.34 138.651C115.195 145.507 119.047 154.805 119.047 164.5C119.047 174.195 115.195 183.493 108.34 190.349C101.484 197.204 92.1862 201.056 82.4911 201.056C72.796 201.056 63.4979 197.204 56.6424 190.349C49.7869 183.493 45.9355 174.195 45.9355 164.5C45.9355 154.805 49.7869 145.507 56.6424 138.651C63.4979 131.796 72.796 127.944 82.4911 127.944Z" fill="#B5B5B5"/>
        <path d="M82.4911 27.4167C92.1862 27.4167 101.484 31.2681 108.34 38.1236C115.195 44.9791 119.047 54.2772 119.047 63.9723C119.047 73.6674 115.195 82.9655 108.34 89.821C101.484 96.6765 92.1862 100.528 82.4911 100.528C72.796 100.528 63.4979 96.6765 56.6424 89.821C49.7869 82.9655 45.9355 73.6674 45.9355 63.9723C45.9355 54.2772 49.7869 44.9791 56.6424 38.1236C63.4979 31.2681 72.796 27.4167 82.4911 27.4167Z" fill="#84878A"/>
</svg>
