<svg width="329" height="329" viewBox="0 0 329 329" fill="none" xmlns="http://www.w3.org/2000/svg">
<path d="M246.75 292.444C246.75 302.14 242.899 311.438 236.043 318.293C229.188 325.149 219.89 329 210.194 329H118.806C109.11 329 99.8124 325.149 92.9569 318.293C86.1014 311.438 82.25 302.14 82.25 292.444V36.5556C82.25 26.8604 86.1014 17.5624 92.9569 10.7069C99.8124 3.85138 109.11 0 118.806 0L210.194 0C219.89 0 229.188 3.85138 236.043 10.7069C242.899 17.5624 246.75 26.8604 246.75 36.5556V292.444Z" fill="#31373D"/>
<path d="M164.491 228.472C174.186 228.472 183.484 232.324 190.34 239.179C197.195 246.035 201.047 255.333 201.047 265.028C201.047 274.723 197.195 284.021 190.34 290.876C183.484 297.732 174.186 301.583 164.491 301.583C154.796 301.583 145.498 297.732 138.642 290.876C131.787 284.021 127.936 274.723 127.936 265.028C127.936 255.333 131.787 246.035 138.642 239.179C145.498 232.324 154.796 228.472 164.491 228.472Z" fill="#CACBCA"/>
<path d="M164.491 127.944C174.186 127.944 183.484 131.796 190.34 138.651C197.195 145.507 201.047 154.805 201.047 164.5C201.047 174.195 197.195 183.493 190.34 190.349C183.484 197.204 174.186 201.056 164.491 201.056C154.796 201.056 145.498 197.204 138.642 190.349C131.787 183.493 127.936 174.195 127.936 164.5C127.936 154.805 131.787 145.507 138.642 138.651C145.498 131.796 154.796 127.944 164.491 127.944Z" fill="#B5B5B5"/>
<path d="M164.491 27.4167C174.186 27.4167 183.484 31.2681 190.34 38.1236C197.195 44.9791 201.047 54.2772 201.047 63.9723C201.047 73.6674 197.195 82.9655 190.34 89.821C183.484 96.6765 174.186 100.528 164.491 100.528C154.796 100.528 145.498 96.6765 138.642 89.821C131.787 82.9655 127.936 73.6674 127.936 63.9723C127.936 54.2772 131.787 44.9791 138.642 38.1236C145.498 31.2681 154.796 27.4167 164.491 27.4167Z" fill="#C80303"/>
</svg>
